<?xml version="1.0" encoding="UTF-8" standalone="no"?>
<!-- Created with Inkscape (http://www.inkscape.org/) -->

<svg
   xmlns:dc="http://purl.org/dc/elements/1.1/"
   xmlns:cc="http://creativecommons.org/ns#"
   xmlns:rdf="http://www.w3.org/1999/02/22-rdf-syntax-ns#"
   xmlns:svg="http://www.w3.org/2000/svg"
   xmlns="http://www.w3.org/2000/svg"
   xmlns:xlink="http://www.w3.org/1999/xlink"
   xmlns:sodipodi="http://sodipodi.sourceforge.net/DTD/sodipodi-0.dtd"
   xmlns:inkscape="http://www.inkscape.org/namespaces/inkscape"
   sodipodi:docname="iconoscope.svg"
   inkscape:version="0.91 r13725"
   version="1.1"
   id="svg2"
   viewBox="0 0 32 32.000001"
   height="32"
   width="32"
   inkscape:export-filename="/home/santiago/iconoscope/data/base_icon1.png"
   inkscape:export-xdpi="90"
   inkscape:export-ydpi="90">
  <sodipodi:namedview
     inkscape:window-maximized="1"
     inkscape:window-y="30"
     inkscape:window-x="0"
     inkscape:window-height="1017"
     inkscape:window-width="1920"
     inkscape:snap-others="false"
     inkscape:snap-nodes="false"
     inkscape:object-paths="true"
     inkscape:object-nodes="true"
     inkscape:snap-object-midpoints="true"
     inkscape:snap-to-guides="false"
     inkscape:snap-grids="true"
     units="px"
     showgrid="true"
     inkscape:current-layer="layer1"
     inkscape:document-units="px"
     inkscape:cy="11.456889"
     inkscape:cx="12.628417"
     inkscape:zoom="16"
     inkscape:pageshadow="2"
     inkscape:pageopacity="0.0"
     borderopacity="1.0"
     bordercolor="#666666"
     pagecolor="#ffffff"
     id="base"
     showguides="true"
     inkscape:snap-bbox="false"
     inkscape:bbox-nodes="true"
     inkscape:bbox-paths="true"
     inkscape:snap-bbox-edge-midpoints="true"
     inkscape:snap-global="true">
    <inkscape:grid
       type="xygrid"
       id="grid4136" />
  </sodipodi:namedview>
  <defs
     id="defs4">
    <linearGradient
       inkscape:collect="always"
       id="linearGradient5329">
      <stop
         style="stop-color:#ffffff;stop-opacity:1"
         offset="0"
         id="stop5331" />
      <stop
         id="stop5355"
         offset="0.13749628"
         style="stop-color:#bfbfbf;stop-opacity:1" />
      <stop
         id="stop5353"
         offset="0.15300073"
         style="stop-color:#bfbfbf;stop-opacity:1" />
      <stop
         style="stop-color:#ffffff;stop-opacity:1"
         offset="0.29217461"
         id="stop5371" />
      <stop
         id="stop5351"
         offset="0.31208521"
         style="stop-color:#ffffff;stop-opacity:1" />
      <stop
         id="stop5349"
         offset="0.41062522"
         style="stop-color:#bfbfbf;stop-opacity:1" />
      <stop
         id="stop5347"
         offset="0.42411265"
         style="stop-color:#bfbfbf;stop-opacity:1" />
      <stop
         id="stop5345"
         offset="0.61795777"
         style="stop-color:#ffffff;stop-opacity:1" />
      <stop
         id="stop5343"
         offset="0.64955771"
         style="stop-color:#ffffff;stop-opacity:1" />
      <stop
         id="stop5341"
         offset="0.79317099"
         style="stop-color:#bfbfbf;stop-opacity:1" />
      <stop
         style="stop-color:#bfbfbf;stop-opacity:1"
         offset="0.80776542"
         id="stop5357" />
      <stop
         id="stop5339"
         offset="0.86538237"
         style="stop-color:#ffffff;stop-opacity:1" />
      <stop
         id="stop5337"
         offset="0.87480235"
         style="stop-color:#ffffff;stop-opacity:1" />
      <stop
         style="stop-color:#bfbfbf;stop-opacity:1"
         offset="0.96387392"
         id="stop5373" />
      <stop
         style="stop-color:#000000;stop-opacity:1"
         offset="1"
         id="stop5333" />
    </linearGradient>
    <linearGradient
       id="linearGradient5079"
       inkscape:collect="always">
      <stop
         id="stop5081"
         offset="0"
         style="stop-color:#756d5d;stop-opacity:1" />
      <stop
         style="stop-color:#a79b81;stop-opacity:1"
         offset="0.23313905"
         id="stop5085" />
      <stop
         id="stop5087"
         offset="0.40227509"
         style="stop-color:#59513e;stop-opacity:1" />
      <stop
         style="stop-color:#453c2b;stop-opacity:1"
         offset="0.71590281"
         id="stop5089" />
      <stop
         id="stop5091"
         offset="0.80763459"
         style="stop-color:#5e5341;stop-opacity:1" />
      <stop
         id="stop5083"
         offset="1"
         style="stop-color:#a49f94;stop-opacity:1" />
    </linearGradient>
    <linearGradient
       id="linearGradient4995"
       inkscape:collect="always">
      <stop
         id="stop4997"
         offset="0"
         style="stop-color:#312512;stop-opacity:1" />
      <stop
         style="stop-color:#3b3525;stop-opacity:1"
         offset="0.4410246"
         id="stop5003" />
      <stop
         style="stop-color:#7c7360;stop-opacity:1"
         offset="0.75875837"
         id="stop5001" />
      <stop
         id="stop4999"
         offset="1"
         style="stop-color:#554c3f;stop-opacity:1" />
    </linearGradient>
    <linearGradient
       inkscape:collect="always"
       id="linearGradient4961">
      <stop
         style="stop-color:#b4a98d;stop-opacity:1;"
         offset="0"
         id="stop4963" />
      <stop
         style="stop-color:#343223;stop-opacity:1"
         offset="1"
         id="stop4965" />
    </linearGradient>
    <radialGradient
       inkscape:collect="always"
       xlink:href="#linearGradient4961"
       id="radialGradient4971"
       cx="41.761215"
       cy="1011.8952"
       fx="41.761215"
       fy="1011.8952"
       r="2.743799"
       gradientTransform="matrix(1.1119131,1.4146537,-0.98601443,0.77500412,978.75034,181.22706)"
       gradientUnits="userSpaceOnUse" />
    <linearGradient
       inkscape:collect="always"
       xlink:href="#linearGradient4995"
       id="linearGradient4993"
       x1="41.811081"
       y1="1039.4215"
       x2="43.642647"
       y2="1036.7102"
       gradientUnits="userSpaceOnUse"
       gradientTransform="matrix(1.2725587,0.07546953,-0.07546953,1.2725587,53.180063,-278.65404)" />
    <linearGradient
       inkscape:collect="always"
       xlink:href="#linearGradient5079"
       id="linearGradient5077"
       x1="4.1633763"
       y1="1036.6708"
       x2="5.8857689"
       y2="1039.452"
       gradientUnits="userSpaceOnUse"
       gradientTransform="matrix(1.3004029,-0.05369189,0.05369189,1.3004029,-59.842176,-304.19357)" />
    <linearGradient
       inkscape:collect="always"
       xlink:href="#linearGradient5329"
       id="linearGradient5335"
       x1="24.579426"
       y1="1032.7341"
       x2="24.525305"
       y2="1015.5868"
       gradientUnits="userSpaceOnUse"
       gradientTransform="matrix(1.047359,0,0,1.047359,-1.2059832,-48.268841)" />
    <linearGradient
       inkscape:collect="always"
       xlink:href="#linearGradient5079"
       id="linearGradient6058"
       gradientUnits="userSpaceOnUse"
       gradientTransform="matrix(1.4260059,0.1162623,0.1162623,-1.4260059,-125.1572,2504.2412)"
       x1="4.1633763"
       y1="1036.6708"
       x2="5.8857689"
       y2="1039.452" />
  </defs>
  <metadata
     id="metadata7">
    <rdf:RDF>
      <cc:Work
         rdf:about="">
        <dc:format>image/svg+xml</dc:format>
        <dc:type
           rdf:resource="http://purl.org/dc/dcmitype/StillImage" />
        <dc:title></dc:title>
      </cc:Work>
    </rdf:RDF>
  </metadata>
  <g
     inkscape:label="Layer 1"
     inkscape:groupmode="layer"
     id="layer1"
     transform="translate(0,-1020.3622)">
    <circle
       style="fill:#37270f;fill-opacity:1;stroke:none;stroke-width:1;stroke-linejoin:bevel;stroke-miterlimit:4;stroke-dasharray:none;stroke-dashoffset:0;stroke-opacity:1"
       id="path4935"
       cx="16.205566"
       cy="1034.6097"
       r="14.179092" />
    <ellipse
       cy="1036.3141"
       cx="16.135653"
       id="circle4937"
       style="fill:#efebea;fill-opacity:1;stroke:none;stroke-width:1;stroke-linejoin:bevel;stroke-miterlimit:4;stroke-dasharray:none;stroke-dashoffset:0;stroke-opacity:1"
       rx="12.344198"
       ry="12.809016" />
    <path
       style="fill:url(#radialGradient4971);fill-opacity:1;fill-rule:evenodd;stroke:none;stroke-width:1px;stroke-linecap:butt;stroke-linejoin:miter;stroke-opacity:1"
       d="m 29.315168,1021.8046 -3.438758,2.6624 -0.496562,-0.01 -0.545177,0.2946 c 1.467569,1.441 2.277203,2.5115 3.350518,3.9939 l 0.346567,-0.4143 0.01407,-0.3627 3.422254,-2.6608 c -0.571486,-1.8048 -1.458563,-2.968 -2.652932,-3.5063 z"
       id="path4959"
       inkscape:connector-curvature="0"
       sodipodi:nodetypes="cccccccccc" />
    <path
       style="fill:#291c0c;fill-opacity:1;fill-rule:evenodd;stroke:none;stroke-width:1px;stroke-linecap:butt;stroke-linejoin:miter;stroke-opacity:1"
       d="m 25.379817,1024.4598 c 1.512634,1.1935 2.278758,2.2684 3.151908,3.8742 l 0.01408,-0.3626 c -0.595184,-1.4942 -1.778057,-2.7976 -2.6694,-3.5044 z"
       id="path4975"
       inkscape:connector-curvature="0"
       sodipodi:nodetypes="ccccc" />
    <path
       sodipodi:nodetypes="cccccccccc"
       inkscape:connector-curvature="0"
       id="path4977"
       d="m 29.401867,1048.3047 -3.449255,-2.458 -0.336891,0.025 -0.522938,-0.2677 c 1.360065,-1.3969 2.10453,-2.4288 3.090077,-3.8565 l 0.337274,0.3855 0.02109,0.3432 3.30002,2.4486 c -0.503101,1.7225 -1.318983,2.8439 -2.439399,3.3797 z"
       style="fill:url(#linearGradient4993);fill-opacity:1;fill-rule:evenodd;stroke:none;stroke-width:1px;stroke-linecap:butt;stroke-linejoin:miter;stroke-opacity:1"
       inkscape:transform-center-x="0.62298958"
       inkscape:transform-center-y="-0.22534338" />
    <path
       sodipodi:nodetypes="ccccc"
       inkscape:connector-curvature="0"
       id="path4979"
       d="m 25.615708,1045.8723 2.904419,-3.7388 0.02109,0.3432 -2.588604,3.37 z"
       style="fill:#291c0c;fill-opacity:1;fill-rule:evenodd;stroke:none;stroke-width:1px;stroke-linecap:butt;stroke-linejoin:miter;stroke-opacity:1"
       inkscape:transform-center-x="1.8249911"
       inkscape:transform-center-y="-1.11481" />
    <circle
       style="fill:#817461;fill-opacity:1;stroke:none;stroke-width:0;stroke-linejoin:bevel;stroke-miterlimit:4;stroke-dasharray:none;stroke-dashoffset:0;stroke-opacity:1"
       id="path5100"
       cx="16.205566"
       cy="1036.5442"
       r="11.899323" />
    <path
       style="fill:url(#linearGradient5077);fill-opacity:1;fill-rule:evenodd;stroke:none;stroke-width:1px;stroke-linecap:butt;stroke-linejoin:miter;stroke-opacity:1"
       d="m 2.3768688,1048.0403 3.4846885,-2.3606 0.4792164,0.038 0.5446355,-0.2511 c -1.3290512,-1.482 -2.0453702,-2.5654 -2.9910952,-4.0632 l -0.3601525,0.3792 -0.03585,0.3492 -3.46864792,2.36 c 0.44125613,1.7781 1.22670072,2.9562 2.34724912,3.5494 z"
       id="path5024"
       inkscape:connector-curvature="0"
       sodipodi:nodetypes="cccccccccc" />
    <path
       style="fill:#291c0c;fill-opacity:1;fill-rule:evenodd;stroke:none;stroke-width:1px;stroke-linecap:butt;stroke-linejoin:miter;stroke-opacity:1"
       d="m 6.3407438,1045.7171 c -1.3877505,-1.2454 -2.0617798,-2.3308 -2.8066121,-3.9351 l -0.03585,0.3491 c 0.4831941,1.4795 1.5457232,2.8112 2.3632768,3.5486 z"
       id="path5026"
       inkscape:connector-curvature="0"
       sodipodi:nodetypes="ccccc" />
    <path
       style="fill:#2e2b27;fill-opacity:1;stroke:none;stroke-width:0;stroke-linejoin:bevel;stroke-miterlimit:4;stroke-dasharray:none;stroke-dashoffset:0;stroke-opacity:1"
       d="m 0.06053896,1044.469 -0.03212309,0.023 c 0.44126045,1.7781 1.22669103,2.9555 2.34724803,3.549 l 0.056925,-0.038 a 2.6945344,1.4641998 59.955626 0 0 -0.5841877,-1.8867 2.6945344,1.4641998 59.955626 0 0 -1.78782759,-1.646 z"
       id="path5093"
       inkscape:connector-curvature="0" />
    <path
       style="fill:#4e4d4b;fill-opacity:1;stroke:none;stroke-width:0;stroke-linejoin:bevel;stroke-miterlimit:4;stroke-dasharray:none;stroke-dashoffset:0;stroke-opacity:1"
       d="m 9.653587,1026.6184 a 11.899323,11.899323 0 0 0 -4.1665934,4.7916 l 0,10.2775 a 11.899323,11.899323 0 0 0 1.6911702,2.5877 l 18.0665482,0 a 11.899323,11.899323 0 0 0 1.679426,-2.5968 l 0,-10.2775 a 11.899323,11.899323 0 0 0 -4.170509,-4.7825 l -13.100042,0 z"
       id="rect5098"
       inkscape:connector-curvature="0" />
    <path
       style="fill:#f4e8d1;fill-opacity:1;fill-rule:evenodd;stroke:none;stroke-width:1px;stroke-linecap:butt;stroke-linejoin:miter;stroke-opacity:1"
       d="m 26,1030.6747 0,9 2,0 0,-9 z"
       id="path5303"
       inkscape:connector-curvature="0"
       sodipodi:nodetypes="ccccc" />
    <path
       style="fill:#000000;fill-opacity:0;fill-rule:evenodd;stroke:none;stroke-width:1px;stroke-linecap:butt;stroke-linejoin:miter;stroke-opacity:1"
       d="m 26.449672,1031.7018 2.288331,-0.251 0.05906,6.2154 -2.288331,0.2214 z"
       id="path5321"
       inkscape:connector-curvature="0" />
    <path
       style="fill:#b8aea4;fill-opacity:0.80582521;fill-rule:evenodd;stroke:none;stroke-width:1px;stroke-linecap:butt;stroke-linejoin:miter;stroke-opacity:1"
       d="m 26,1031.6747 3,0 0,7 -3,0 z"
       id="path5321-1"
       inkscape:connector-curvature="0"
       sodipodi:nodetypes="ccccc" />
    <ellipse
       style="fill:#e1d5bf;fill-opacity:1;stroke:none;stroke-width:0;stroke-linejoin:bevel;stroke-miterlimit:4;stroke-dasharray:none;stroke-dashoffset:0;stroke-opacity:1"
       id="path5323"
       cx="27.550037"
       cy="1035.2794"
       rx="0.92222512"
       ry="2.2342136" />
    <path
       style="fill:#efebea;fill-opacity:1;fill-rule:evenodd;stroke:none;stroke-width:1px;stroke-linecap:butt;stroke-linejoin:miter;stroke-opacity:1"
       d="m 13.522513,1049.2317 -1.577216,-1.4442 -1.055054,-0.958 c 0,0 -0.42832,-0.5488 -0.09426,-1.3422 0.334059,-0.7933 0.44501,-1.438 2.296651,-2.8603 0.542635,-0.4169 1.633799,-0.7696 2.776936,-0.8123 1.326331,-0.049 2.700944,0.2602 3.027326,0.4574 0.982188,0.5929 2.898143,1.9127 2.744799,4.16 -0.0252,0.3694 -0.614312,0.7857 -1.096932,1.3324 -0.559465,0.6337 -1.28725,1.4209 -1.28725,1.4209 z"
       id="path5490"
       inkscape:connector-curvature="0"
       sodipodi:nodetypes="cccsssssscc" />
    <path
       sodipodi:nodetypes="cssssssssscc"
       inkscape:connector-curvature="0"
       id="path5492"
       d="m 13.522513,1049.2317 c 0,0 -0.342259,-0.2956 -0.750384,-0.7412 -0.250591,-0.2737 -1.46619,-1.472 -1.614759,-1.812 -0.223914,-0.5124 -0.230255,-0.8141 0.10021,-1.5679 0.342841,-0.7821 1.257283,-1.915 2.041947,-2.2728 0.633487,-0.2888 1.547129,-0.7371 2.629625,-0.778 1.255972,-0.047 2.557632,0.2493 2.866733,0.438 0.829466,0.5065 1.883195,1.4042 2.475155,2.8483 0.222777,0.5435 0.208524,0.9049 0.01678,1.2927 -0.109441,0.2214 -0.983233,1.1761 -1.366033,1.6495 -0.573077,0.7088 -0.79851,0.9375 -0.79851,0.9375 z"
       style="fill:#7b776d;fill-opacity:1;fill-rule:evenodd;stroke:none;stroke-width:1px;stroke-linecap:butt;stroke-linejoin:miter;stroke-opacity:1" />
    <path
       style="fill:#ffffff;fill-opacity:0.42156863;fill-rule:evenodd;stroke:none;stroke-width:1px;stroke-linecap:butt;stroke-linejoin:miter;stroke-opacity:1"
       d="m 8.8865956,1023.4652 c 0.387159,1.3826 0.8762035,2.7844 1.5962894,4.1618 1.391442,-0.5473 3.353799,-1.0814 5.450079,-1.2196 2.196164,-0.1448 4.516603,0.1245 5.457894,0.3454 0.06806,-0.9732 0.581885,-2.3622 0.133025,-4.5466 -1.779218,-0.7557 -4.057124,-1.17 -6.417526,-0.9345 -2.227987,0.2224 -4.540355,1.0387 -6.2197614,2.1935 z"
       id="path5691"
       inkscape:connector-curvature="0"
       sodipodi:nodetypes="ccsccsc" />
    <g
       id="g5223"
       transform="matrix(0.06266268,0,0,0.06266268,0.14697622,987.7598)">
      <path
         id="rect4900"
         d="m 137.02742,676.64185 29.67875,0 0,29.67875 -29.67875,0 z"
         style="fill:none;fill-opacity:0.19607843;stroke:#bfbfbf;stroke-width:11.96275425;stroke-linejoin:miter;stroke-miterlimit:4;stroke-dasharray:none;stroke-dashoffset:0;stroke-opacity:1"
         inkscape:connector-curvature="0" />
      <path
         sodipodi:nodetypes="cc"
         inkscape:connector-curvature="0"
         id="path4903"
         d="m 166.70617,706.3206 0,109.24305 176.80959,0 0,-109.24305 -176.80959,0"
         style="fill:none;fill-rule:evenodd;stroke:#bfbfbf;stroke-width:11.96275425;stroke-linecap:butt;stroke-linejoin:miter;stroke-miterlimit:4;stroke-dasharray:none;stroke-opacity:1" />
      <path
         inkscape:connector-curvature="0"
         style="fill:none;fill-opacity:0.19607843;stroke:#bfbfbf;stroke-width:11.96275425;stroke-linejoin:miter;stroke-miterlimit:4;stroke-dasharray:none;stroke-dashoffset:0;stroke-opacity:1"
         d="m 137.02742,815.56365 29.67875,0 0,29.67875 -29.67875,0 z"
         id="path4905" />
      <path
         id="path4907"
         d="m 343.51576,815.56365 29.67875,0 0,29.67875 -29.67875,0 z"
         style="fill:none;fill-opacity:0.19607843;stroke:#bfbfbf;stroke-width:11.96275425;stroke-linejoin:miter;stroke-miterlimit:4;stroke-dasharray:none;stroke-dashoffset:0;stroke-opacity:1"
         inkscape:connector-curvature="0" />
      <path
         inkscape:connector-curvature="0"
         style="fill:none;fill-opacity:0.19607843;stroke:#bfbfbf;stroke-width:11.96275425;stroke-linejoin:miter;stroke-miterlimit:4;stroke-dasharray:none;stroke-dashoffset:0;stroke-opacity:1"
         d="m 343.51576,676.64185 29.67875,0 0,29.67875 -29.67875,0 z"
         id="path4909" />
    </g>
    <text
       xml:space="preserve"
       style="font-style:normal;font-weight:normal;font-size:4.23613691px;line-height:125%;font-family:sans-serif;text-align:center;letter-spacing:0px;word-spacing:0px;text-anchor:middle;fill:#bfbfbf;fill-opacity:1;stroke:none;stroke-width:1px;stroke-linecap:butt;stroke-linejoin:miter;stroke-opacity:1"
       x="16.133171"
       y="1036.9196"
       id="text4911"
       sodipodi:linespacing="125%"><tspan
         sodipodi:role="line"
         id="tspan4913"
         x="16.133171"
         y="1036.9196"
         style="font-style:normal;font-variant:normal;font-weight:normal;font-stretch:normal;font-family:Limelight;-inkscape-font-specification:Limelight;fill:#bfbfbf;fill-opacity:1">END</tspan></text>
    <path
       style="fill:#000000;fill-opacity:1;stroke:none;stroke-width:0;stroke-linejoin:bevel;stroke-miterlimit:4;stroke-dasharray:none;stroke-dashoffset:0;stroke-opacity:1"
       d="M 7.2801622,1028.6747 7,1029.0043 l 0,12.6704 18,0 0,-13 c 0,0 -11.849853,0 -17.7198378,0 z"
       id="rect5230"
       inkscape:connector-curvature="0"
       sodipodi:nodetypes="cccccc" />
    <path
       inkscape:connector-curvature="0"
       id="path5234"
       d="m 8.4970453,1030.2023 2.0222997,0 0,1.9754 -2.0222997,0 z"
       style="fill:none;fill-opacity:0.19607843;stroke:#bfbfbf;stroke-width:0.99999994;stroke-linejoin:miter;stroke-miterlimit:4;stroke-dasharray:none;stroke-dashoffset:0;stroke-opacity:1"
       sodipodi:nodetypes="ccccc" />
    <path
       sodipodi:nodetypes="ccccc"
       inkscape:connector-curvature="0"
       id="path5236"
       d="m 10.505416,1032.1759 0,5.9975 11.024533,0 0,-5.9975 -10.921092,0"
       style="fill:none;fill-rule:evenodd;stroke:#bfbfbf;stroke-width:0.99999994;stroke-linecap:butt;stroke-linejoin:miter;stroke-miterlimit:4;stroke-dasharray:none;stroke-opacity:1" />
    <path
       inkscape:connector-curvature="0"
       style="fill:none;fill-opacity:0.19607843;stroke:#bfbfbf;stroke-width:0.99999994;stroke-linejoin:miter;stroke-miterlimit:4;stroke-dasharray:none;stroke-dashoffset:0;stroke-opacity:1"
       d="m 8.5036017,1038.1787 2.0060373,0 0,1.9801 -2.0060373,0 z"
       id="path5238"
       sodipodi:nodetypes="ccccc" />
    <path
       id="path5240"
       d="m 21.498699,1038.1735 2.006038,0 0,2.0217 -2.006038,0 z"
       style="fill:none;fill-opacity:0.19607843;stroke:#bfbfbf;stroke-width:0.99999994;stroke-linejoin:miter;stroke-miterlimit:4;stroke-dasharray:none;stroke-dashoffset:0;stroke-opacity:1"
       inkscape:connector-curvature="0"
       sodipodi:nodetypes="ccccc" />
    <path
       inkscape:connector-curvature="0"
       style="fill:none;fill-opacity:0.19607843;stroke:#bfbfbf;stroke-width:0.99999994;stroke-linejoin:miter;stroke-miterlimit:4;stroke-dasharray:none;stroke-dashoffset:0;stroke-opacity:1"
       d="m 21.514324,1030.1543 2.006038,0 0,1.9955 -2.006038,0 z"
       id="path5242"
       sodipodi:nodetypes="ccccc" />
    <path
       inkscape:connector-curvature="0"
       id="path5700"
       style="font-style:normal;font-variant:normal;font-weight:normal;font-stretch:normal;font-size:medium;line-height:125%;font-family:Limelight;-inkscape-font-specification:Limelight;text-align:center;letter-spacing:0px;word-spacing:0px;text-anchor:middle;fill:#bfbfbf;fill-opacity:1;stroke:none;stroke-width:1px;stroke-linecap:butt;stroke-linejoin:miter;stroke-opacity:1"
       d="m 14,1033.6747 -6.05e-4,3.01 -1.999395,-0.01 0,-3 z"
       sodipodi:nodetypes="ccccc" />
    <path
       style="font-style:normal;font-variant:normal;font-weight:normal;font-stretch:normal;font-size:medium;line-height:125%;font-family:Limelight;-inkscape-font-specification:Limelight;text-align:center;letter-spacing:0px;word-spacing:0px;text-anchor:middle;fill:#000000;fill-opacity:1;stroke:none;stroke-width:1px;stroke-linecap:butt;stroke-linejoin:miter;stroke-opacity:1"
       d="m 18.194851,1036.3245 q 0.0298,0 0.05402,0 0.02608,0 0.04285,0 0.162061,0 0.316672,-0.04 0.154612,-0.043 0.292457,-0.1214 0.137846,-0.081 0.253337,-0.1978 0.117356,-0.117 0.201182,-0.2681 0.08383,-0.1532 0.130393,-0.3384 0.04657,-0.1851 0.04657,-0.4 0,-0.1936 -0.04285,-0.3745 -0.04098,-0.1831 -0.122943,-0.3384 -0.0801,-0.1553 -0.199318,-0.2745 -0.117355,-0.1211 -0.270103,-0.1936 -0.122943,-0.059 -0.292457,-0.092 -0.167649,-0.032 -0.409811,-0.036 l 0,2.6727 z"
       id="path5704"
       inkscape:connector-curvature="0" />
    <ellipse
       cy="1046.6375"
       cx="16.309692"
       id="circle5542"
       style="fill:#b7afa0;fill-opacity:1;stroke:none;stroke-width:0.30000001;stroke-linejoin:bevel;stroke-miterlimit:4;stroke-dasharray:none;stroke-dashoffset:0;stroke-opacity:1"
       rx="6.7198462"
       ry="5.7215023" />
    <ellipse
       style="fill:#282723;fill-opacity:1;stroke:none;stroke-width:0.30000001;stroke-linejoin:bevel;stroke-miterlimit:4;stroke-dasharray:none;stroke-dashoffset:0;stroke-opacity:1"
       id="circle5544"
       cx="16.309692"
       cy="1046.6375"
       rx="5.7398682"
       ry="4.8871169" />
    <ellipse
       style="fill:#d5d0c4;fill-opacity:1;stroke:none;stroke-width:0.30000001;stroke-linejoin:bevel;stroke-miterlimit:4;stroke-dasharray:none;stroke-dashoffset:0;stroke-opacity:1"
       id="path5568"
       cx="16.309692"
       cy="1046.6375"
       rx="2.0124545"
       ry="1.7134717" />
    <ellipse
       ry="0.54371369"
       rx="0.63858616"
       cy="1046.6393"
       cx="11.409802"
       id="ellipse5596"
       style="fill:#d5d0c4;fill-opacity:1;stroke:none;stroke-width:0.30000001;stroke-linejoin:bevel;stroke-miterlimit:4;stroke-dasharray:none;stroke-dashoffset:0;stroke-opacity:1" />
    <ellipse
       ry="0.54371369"
       rx="0.63858616"
       style="fill:#d5d0c4;fill-opacity:1;stroke:none;stroke-width:0.30000001;stroke-linejoin:bevel;stroke-miterlimit:4;stroke-dasharray:none;stroke-dashoffset:0;stroke-opacity:1"
       id="ellipse5598"
       cx="12.844948"
       cy="1049.5892" />
    <ellipse
       ry="0.54371369"
       rx="0.63858616"
       cy="1050.8115"
       cx="16.309692"
       id="ellipse5600"
       style="fill:#d5d0c4;fill-opacity:1;stroke:none;stroke-width:0.30000001;stroke-linejoin:bevel;stroke-miterlimit:4;stroke-dasharray:none;stroke-dashoffset:0;stroke-opacity:1" />
    <ellipse
       ry="0.54371369"
       rx="0.63858616"
       style="fill:#d5d0c4;fill-opacity:1;stroke:none;stroke-width:0.30000001;stroke-linejoin:bevel;stroke-miterlimit:4;stroke-dasharray:none;stroke-dashoffset:0;stroke-opacity:1"
       id="ellipse5602"
       cx="19.774433"
       cy="1049.5892" />
    <ellipse
       ry="0.54371369"
       rx="0.63858616"
       cy="1046.6393"
       cx="21.209581"
       id="ellipse5604"
       style="fill:#d5d0c4;fill-opacity:1;stroke:none;stroke-width:0.30000001;stroke-linejoin:bevel;stroke-miterlimit:4;stroke-dasharray:none;stroke-dashoffset:0;stroke-opacity:1" />
    <ellipse
       ry="0.54371369"
       rx="0.63858616"
       style="fill:#d5d0c4;fill-opacity:1;stroke:none;stroke-width:0.30000001;stroke-linejoin:bevel;stroke-miterlimit:4;stroke-dasharray:none;stroke-dashoffset:0;stroke-opacity:1"
       id="ellipse5606"
       cx="19.774433"
       cy="1043.6893" />
    <ellipse
       ry="0.54371369"
       rx="0.63858616"
       cy="1042.4674"
       cx="16.309692"
       id="ellipse5608"
       style="fill:#d5d0c4;fill-opacity:1;stroke:none;stroke-width:0.30000001;stroke-linejoin:bevel;stroke-miterlimit:4;stroke-dasharray:none;stroke-dashoffset:0;stroke-opacity:1" />
    <ellipse
       ry="0.54371369"
       rx="0.63858616"
       style="fill:#d5d0c4;fill-opacity:1;stroke:none;stroke-width:0.30000001;stroke-linejoin:bevel;stroke-miterlimit:4;stroke-dasharray:none;stroke-dashoffset:0;stroke-opacity:1"
       id="ellipse5610"
       cx="13.152365"
       cy="1043.5808" />
    <path
       sodipodi:nodetypes="ccccc"
       d="m 17.000605,1033.6647 -6.05e-4,3.01 -1.999395,-0.01 0,-3 z"
       style="font-style:normal;font-variant:normal;font-weight:normal;font-stretch:normal;font-size:medium;line-height:125%;font-family:Limelight;-inkscape-font-specification:Limelight;text-align:center;letter-spacing:0px;word-spacing:0px;text-anchor:middle;fill:#bfbfbf;fill-opacity:1;stroke:none;stroke-width:1px;stroke-linecap:butt;stroke-linejoin:miter;stroke-opacity:1"
       id="path5987"
       inkscape:connector-curvature="0" />
    <path
       inkscape:connector-curvature="0"
       id="path5989"
       style="font-style:normal;font-variant:normal;font-weight:normal;font-stretch:normal;font-size:medium;line-height:125%;font-family:Limelight;-inkscape-font-specification:Limelight;text-align:center;letter-spacing:0px;word-spacing:0px;text-anchor:middle;fill:#bfbfbf;fill-opacity:1;stroke:none;stroke-width:1px;stroke-linecap:butt;stroke-linejoin:miter;stroke-opacity:1"
       d="m 20.000605,1033.6647 -6.05e-4,3.01 -1.999395,-0.01 0,-3 z"
       sodipodi:nodetypes="ccccc" />
    <path
       sodipodi:nodetypes="ccccc"
       inkscape:connector-curvature="0"
       id="path6020"
       d="m 6,1030.6747 0,9 -2,0 0,-9 z"
       style="fill:#f4e8d1;fill-opacity:1;fill-rule:evenodd;stroke:none;stroke-width:1px;stroke-linecap:butt;stroke-linejoin:miter;stroke-opacity:1" />
    <path
       sodipodi:nodetypes="ccccc"
       inkscape:connector-curvature="0"
       id="path6022"
       d="m 6,1031.6747 -3,0 0,7 3,0 z"
       style="fill:#b8aea4;fill-opacity:0.80582521;fill-rule:evenodd;stroke:none;stroke-width:1px;stroke-linecap:butt;stroke-linejoin:miter;stroke-opacity:1" />
    <ellipse
       ry="2.2342136"
       rx="0.92222512"
       cy="1035.2794"
       cx="-4.4499626"
       id="ellipse6024"
       style="fill:#e1d5bf;fill-opacity:1;stroke:none;stroke-width:0;stroke-linejoin:bevel;stroke-miterlimit:4;stroke-dasharray:none;stroke-dashoffset:0;stroke-opacity:1"
       transform="scale(-1,1)" />
    <path
       sodipodi:nodetypes="ccccc"
       inkscape:connector-curvature="0"
       id="path6044"
       d="m 6.3407438,1045.7171 c -1.3877505,-1.2454 -2.0617798,-2.3308 -2.8066121,-3.9351 l -0.03585,0.3491 c 0.4831941,1.4795 1.5457232,2.8112 2.3632768,3.5486 z"
       style="fill:#291c0c;fill-opacity:1;fill-rule:evenodd;stroke:none;stroke-width:1px;stroke-linecap:butt;stroke-linejoin:miter;stroke-opacity:1" />
    <path
       inkscape:connector-curvature="0"
       id="path6046"
       d="m 0.06053896,1044.469 -0.03212309,0.023 c 0.44126045,1.7781 1.22669103,2.9555 2.34724803,3.549 l 0.056925,-0.038 a 2.6945344,1.4641998 59.955626 0 0 -0.5841877,-1.8867 2.6945344,1.4641998 59.955626 0 0 -1.78782759,-1.646 z"
       style="fill:#2e2b27;fill-opacity:1;stroke:none;stroke-width:0;stroke-linejoin:bevel;stroke-miterlimit:4;stroke-dasharray:none;stroke-dashoffset:0;stroke-opacity:1" />
    <path
       sodipodi:nodetypes="cccccccccc"
       inkscape:connector-curvature="0"
       id="path6048"
       d="m 2.7546712,1021.6796 3.7236122,2.7465 0.5279599,-0.021 0.5871692,0.2999 c -1.5251109,1.5692 -2.3596517,2.7278 -3.4644285,4.3313 l -0.3788902,-0.4324 -0.023991,-0.3852 -3.70602066,-2.7452 c 0.56300329,-1.9334 1.47763956,-3.1929 2.73459946,-3.7951 z"
       style="fill:url(#linearGradient6058);fill-opacity:1;fill-rule:evenodd;stroke:none;stroke-width:1px;stroke-linecap:butt;stroke-linejoin:miter;stroke-opacity:1"
       inkscape:transform-center-x="0.79481141"
       inkscape:transform-center-y="-1.1932427" />
    <path
       sodipodi:nodetypes="ccccc"
       inkscape:connector-curvature="0"
       id="path6050"
       d="m 7.0062787,1024.406 c -1.5791725,1.3068 -2.367342,2.4692 -3.2561592,4.1989 l -0.023991,-0.3852 c 0.5959265,-1.6039 1.8216712,-3.0198 2.7521554,-3.7936 z"
       style="fill:#291c0c;fill-opacity:1;fill-rule:evenodd;stroke:none;stroke-width:1px;stroke-linecap:butt;stroke-linejoin:miter;stroke-opacity:1"
       inkscape:transform-center-x="-0.76464491"
       inkscape:transform-center-y="-0.045142692" />
    <path
       inkscape:connector-curvature="0"
       id="path6052"
       d="m 0.05308558,1025.5004 -0.03437093,-0.027 c 0.56301619,-1.9337 1.47760575,-3.1922 2.73457845,-3.7947 l 0.060847,0.045 a 1.6095797,2.9620736 32.341068 0 1 -0.7247829,2.0467 1.6095797,2.9620736 32.341068 0 1 -2.03628032,1.7293 z"
       style="fill:#2e2b27;fill-opacity:1;stroke:none;stroke-width:0;stroke-linejoin:bevel;stroke-miterlimit:4;stroke-dasharray:none;stroke-dashoffset:0;stroke-opacity:1"
       inkscape:transform-center-x="3.1851314"
       inkscape:transform-center-y="-2.9610428" />
    <path
       style="fill:#291c0c;fill-opacity:1;fill-rule:evenodd;stroke:none;stroke-width:1px;stroke-linecap:butt;stroke-linejoin:miter;stroke-opacity:1"
       d="m 7.0062787,1024.406 c -1.5791725,1.3068 -2.367342,2.4692 -3.2561592,4.1989 l -0.023991,-0.3852 c 0.5959265,-1.6039 1.8216712,-3.0198 2.7521554,-3.7936 z"
       id="path6054"
       inkscape:connector-curvature="0"
       sodipodi:nodetypes="ccccc"
       inkscape:transform-center-x="-0.76464491"
       inkscape:transform-center-y="-0.045142692" />
    <path
       style="fill:#2e2b27;fill-opacity:1;stroke:none;stroke-width:0;stroke-linejoin:bevel;stroke-miterlimit:4;stroke-dasharray:none;stroke-dashoffset:0;stroke-opacity:1"
       d="m 0.05308558,1025.5004 -0.03437093,-0.027 c 0.56301619,-1.9337 1.47760575,-3.1922 2.73457845,-3.7947 l 0.060847,0.045 a 1.6095797,2.9620736 32.341068 0 1 -0.7247829,2.0467 1.6095797,2.9620736 32.341068 0 1 -2.03628032,1.7293 z"
       id="path6056"
       inkscape:connector-curvature="0"
       inkscape:transform-center-x="3.1851314"
       inkscape:transform-center-y="-2.9610428" />
  </g>
</svg>
