<?xml version="1.0" encoding="UTF-8" standalone="no"?>
<!-- Created with Inkscape (http://www.inkscape.org/) -->

<svg
   xmlns:dc="http://purl.org/dc/elements/1.1/"
   xmlns:cc="http://creativecommons.org/ns#"
   xmlns:rdf="http://www.w3.org/1999/02/22-rdf-syntax-ns#"
   xmlns:svg="http://www.w3.org/2000/svg"
   xmlns="http://www.w3.org/2000/svg"
   xmlns:xlink="http://www.w3.org/1999/xlink"
   xmlns:sodipodi="http://sodipodi.sourceforge.net/DTD/sodipodi-0.dtd"
   xmlns:inkscape="http://www.inkscape.org/namespaces/inkscape"
   sodipodi:docname="iconoscope.svg"
   inkscape:version="0.92.3 (2405546, 2018-03-11)"
   version="1.1"
   id="svg2"
   viewBox="0 0 48 48.000001"
   height="48"
   width="48"
   inkscape:export-filename="/home/santiago/iconoscope/data/base_icon1.png"
   inkscape:export-xdpi="90"
   inkscape:export-ydpi="90">
  <sodipodi:namedview
     inkscape:window-maximized="1"
     inkscape:window-y="30"
     inkscape:window-x="0"
     inkscape:window-height="1017"
     inkscape:window-width="1920"
     inkscape:snap-others="false"
     inkscape:snap-nodes="true"
     inkscape:object-paths="false"
     inkscape:object-nodes="false"
     inkscape:snap-object-midpoints="true"
     inkscape:snap-to-guides="false"
     inkscape:snap-grids="true"
     units="px"
     showgrid="true"
     inkscape:current-layer="layer1"
     inkscape:document-units="px"
     inkscape:cy="25.486005"
     inkscape:cx="13.246847"
     inkscape:zoom="16"
     inkscape:pageshadow="2"
     inkscape:pageopacity="0.0"
     borderopacity="1.0"
     bordercolor="#666666"
     pagecolor="#ffffff"
     id="base"
     showguides="true"
     inkscape:snap-bbox="true"
     inkscape:bbox-nodes="true"
     inkscape:bbox-paths="true"
     inkscape:snap-bbox-edge-midpoints="true"
     inkscape:snap-global="true">
    <inkscape:grid
       type="xygrid"
       id="grid4136" />
  </sodipodi:namedview>
  <defs
     id="defs4">
    <linearGradient
       inkscape:collect="always"
       id="linearGradient5399">
      <stop
         style="stop-color:#312512;stop-opacity:1"
         offset="0"
         id="stop5401" />
      <stop
         id="stop5411"
         offset="0.28214774"
         style="stop-color:#726852;stop-opacity:1" />
      <stop
         id="stop5409"
         offset="0.36319914"
         style="stop-color:#413925;stop-opacity:1" />
      <stop
         id="stop5403"
         offset="0.4410246"
         style="stop-color:#3b3525;stop-opacity:1" />
      <stop
         id="stop5405"
         offset="0.75875837"
         style="stop-color:#7c7360;stop-opacity:1" />
      <stop
         style="stop-color:#554c3f;stop-opacity:1"
         offset="1"
         id="stop5407" />
    </linearGradient>
    <linearGradient
       id="linearGradient5387"
       inkscape:collect="always">
      <stop
         id="stop5389"
         offset="0"
         style="stop-color:#222013;stop-opacity:1" />
      <stop
         style="stop-color:#19190f;stop-opacity:1"
         offset="0.1760608"
         id="stop5397" />
      <stop
         style="stop-color:#606057;stop-opacity:1"
         offset="0.30371103"
         id="stop5393" />
      <stop
         id="stop5391"
         offset="1"
         style="stop-color:#000000;stop-opacity:1" />
    </linearGradient>
    <linearGradient
       inkscape:collect="always"
       id="linearGradient5329">
      <stop
         style="stop-color:#ffffff;stop-opacity:1"
         offset="0"
         id="stop5331" />
      <stop
         id="stop5355"
         offset="0.13749628"
         style="stop-color:#bfbfbf;stop-opacity:1" />
      <stop
         id="stop5353"
         offset="0.15300073"
         style="stop-color:#bfbfbf;stop-opacity:1" />
      <stop
         style="stop-color:#ffffff;stop-opacity:1"
         offset="0.29217461"
         id="stop5371" />
      <stop
         id="stop5351"
         offset="0.31208521"
         style="stop-color:#ffffff;stop-opacity:1" />
      <stop
         id="stop5349"
         offset="0.41062522"
         style="stop-color:#bfbfbf;stop-opacity:1" />
      <stop
         id="stop5347"
         offset="0.42411265"
         style="stop-color:#bfbfbf;stop-opacity:1" />
      <stop
         id="stop5345"
         offset="0.61795777"
         style="stop-color:#ffffff;stop-opacity:1" />
      <stop
         id="stop5343"
         offset="0.64955771"
         style="stop-color:#ffffff;stop-opacity:1" />
      <stop
         id="stop5341"
         offset="0.79317099"
         style="stop-color:#bfbfbf;stop-opacity:1" />
      <stop
         style="stop-color:#bfbfbf;stop-opacity:1"
         offset="0.80776542"
         id="stop5357" />
      <stop
         id="stop5339"
         offset="0.86538237"
         style="stop-color:#ffffff;stop-opacity:1" />
      <stop
         id="stop5337"
         offset="0.87480235"
         style="stop-color:#ffffff;stop-opacity:1" />
      <stop
         style="stop-color:#bfbfbf;stop-opacity:1"
         offset="0.96387392"
         id="stop5373" />
      <stop
         style="stop-color:#000000;stop-opacity:1"
         offset="1"
         id="stop5333" />
    </linearGradient>
    <linearGradient
       id="linearGradient5079"
       inkscape:collect="always">
      <stop
         id="stop5081"
         offset="0"
         style="stop-color:#756d5d;stop-opacity:1" />
      <stop
         style="stop-color:#a79b81;stop-opacity:1"
         offset="0.23313905"
         id="stop5085" />
      <stop
         id="stop5087"
         offset="0.40227509"
         style="stop-color:#59513e;stop-opacity:1" />
      <stop
         style="stop-color:#453c2b;stop-opacity:1"
         offset="0.71590281"
         id="stop5089" />
      <stop
         id="stop5091"
         offset="0.80763459"
         style="stop-color:#5e5341;stop-opacity:1" />
      <stop
         id="stop5083"
         offset="1"
         style="stop-color:#a49f94;stop-opacity:1" />
    </linearGradient>
    <linearGradient
       inkscape:collect="always"
       id="linearGradient5067">
      <stop
         style="stop-color:#ffffff;stop-opacity:1"
         offset="0"
         id="stop5069" />
      <stop
         id="stop5075"
         offset="0.52273762"
         style="stop-color:#000000;stop-opacity:1" />
      <stop
         style="stop-color:#000000;stop-opacity:1"
         offset="1"
         id="stop5071" />
    </linearGradient>
    <linearGradient
       inkscape:collect="always"
       id="linearGradient5050">
      <stop
         style="stop-color:#4e4839;stop-opacity:1"
         offset="0"
         id="stop5052" />
      <stop
         id="stop5060"
         offset="0.4366838"
         style="stop-color:#2c281d;stop-opacity:1" />
      <stop
         id="stop5058"
         offset="0.65956283"
         style="stop-color:#d3cdb4;stop-opacity:1" />
      <stop
         style="stop-color:#968b71;stop-opacity:1"
         offset="1"
         id="stop5054" />
    </linearGradient>
    <linearGradient
       inkscape:collect="always"
       id="linearGradient5010">
      <stop
         style="stop-color:#00000f;stop-opacity:0"
         offset="0"
         id="stop5012" />
      <stop
         style="stop-color:#000000;stop-opacity:1"
         offset="1"
         id="stop5014" />
    </linearGradient>
    <linearGradient
       id="linearGradient4995"
       inkscape:collect="always">
      <stop
         id="stop4997"
         offset="0"
         style="stop-color:#312512;stop-opacity:1" />
      <stop
         style="stop-color:#3b3525;stop-opacity:1"
         offset="0.4410246"
         id="stop5003" />
      <stop
         style="stop-color:#7c7360;stop-opacity:1"
         offset="0.75875837"
         id="stop5001" />
      <stop
         id="stop4999"
         offset="1"
         style="stop-color:#554c3f;stop-opacity:1" />
    </linearGradient>
    <linearGradient
       inkscape:collect="always"
       id="linearGradient4961">
      <stop
         style="stop-color:#b4a98d;stop-opacity:1;"
         offset="0"
         id="stop4963" />
      <stop
         style="stop-color:#343223;stop-opacity:1"
         offset="1"
         id="stop4965" />
    </linearGradient>
    <radialGradient
       inkscape:collect="always"
       xlink:href="#linearGradient4961"
       id="radialGradient4971"
       cx="41.761215"
       cy="1011.8952"
       fx="41.761215"
       fy="1011.8952"
       r="2.743799"
       gradientTransform="matrix(1.2298046,1.955273,-1.3628264,0.85717454,1369.6493,61.587231)"
       gradientUnits="userSpaceOnUse" />
    <linearGradient
       inkscape:collect="always"
       xlink:href="#linearGradient4995"
       id="linearGradient4993"
       x1="41.811081"
       y1="1039.4215"
       x2="43.642647"
       y2="1036.7102"
       gradientUnits="userSpaceOnUse"
       gradientTransform="matrix(1.726383,0,0,1.726383,-29.657413,-753.05597)" />
    <linearGradient
       inkscape:collect="always"
       xlink:href="#linearGradient5010"
       id="linearGradient5016"
       x1="43.505859"
       y1="32.257812"
       x2="45.110775"
       y2="34.988297"
       gradientUnits="userSpaceOnUse"
       gradientTransform="matrix(1.726383,0,0,1.726383,-29.657413,980.85782)" />
    <linearGradient
       inkscape:collect="always"
       xlink:href="#linearGradient5050"
       id="linearGradient5056"
       x1="4.8638215"
       y1="1013.1744"
       x2="5.7196255"
       y2="1011.8877"
       gradientUnits="userSpaceOnUse"
       gradientTransform="matrix(1.726383,0,0,1.726383,-4.590373,-736.52308)" />
    <radialGradient
       inkscape:collect="always"
       xlink:href="#linearGradient5067"
       id="radialGradient5073"
       cx="3.6117432"
       cy="6.9363589"
       fx="3.6117432"
       fy="6.9363589"
       r="0.84517002"
       gradientTransform="matrix(1.4013106,0.92118042,-4.7103853,7.1654952,29.256626,956.02847)"
       gradientUnits="userSpaceOnUse" />
    <linearGradient
       inkscape:collect="always"
       xlink:href="#linearGradient5079"
       id="linearGradient5077"
       x1="4.1633763"
       y1="1036.6708"
       x2="5.8857689"
       y2="1039.452"
       gradientUnits="userSpaceOnUse"
       gradientTransform="matrix(1.726383,0,0,1.726383,-5.0045712,-752.84121)" />
    <linearGradient
       inkscape:collect="always"
       xlink:href="#linearGradient5329"
       id="linearGradient5335"
       x1="24.579426"
       y1="1032.7341"
       x2="24.525305"
       y2="1015.5868"
       gradientUnits="userSpaceOnUse"
       gradientTransform="matrix(1.047359,0,0,1.047359,-1.2059832,-48.268841)" />
    <linearGradient
       inkscape:collect="always"
       xlink:href="#linearGradient5399"
       id="linearGradient5383"
       gradientUnits="userSpaceOnUse"
       x1="41.811081"
       y1="1039.4215"
       x2="43.642647"
       y2="1036.7102"
       gradientTransform="matrix(1.2911207,0.92819391,-0.87113982,1.386051,884.30613,-432.96081)" />
    <radialGradient
       inkscape:collect="always"
       xlink:href="#linearGradient5387"
       id="radialGradient5395"
       cx="-10.905845"
       cy="1046.5419"
       fx="-10.905845"
       fy="1046.5419"
       r="1.5094841"
       gradientTransform="matrix(1.6998623,4.0436484,-10.693066,4.4951319,11244.442,-3613.8045)"
       gradientUnits="userSpaceOnUse" />
  </defs>
  <metadata
     id="metadata7">
    <rdf:RDF>
      <cc:Work
         rdf:about="">
        <dc:format>image/svg+xml</dc:format>
        <dc:type
           rdf:resource="http://purl.org/dc/dcmitype/StillImage" />
        <dc:title />
      </cc:Work>
    </rdf:RDF>
  </metadata>
  <g
     inkscape:label="Layer 1"
     inkscape:groupmode="layer"
     id="layer1"
     transform="translate(0,-1004.3622)">
    <g
       id="g5805"
       transform="translate(1.125,-0.375)">
      <path
         sodipodi:nodetypes="cccccccccc"
         inkscape:connector-curvature="0"
         id="path5377"
         d="m 33.671388,1048.7229 -2.09755,-5.0585 -0.370437,-0.1941 -0.383335,-0.6482 c 2.299292,-0.6759 3.724031,-1.3466 5.648675,-2.3049 l 0.114891,0.6583 -0.191394,0.4012 1.9464,4.9495 c -1.616048,1.5952 -2.229088,1.7623 -4.667841,2.1979 z"
         style="fill:url(#linearGradient5383);fill-opacity:1;fill-rule:evenodd;stroke:none;stroke-width:1px;stroke-linecap:butt;stroke-linejoin:miter;stroke-opacity:1"
         inkscape:transform-center-x="0.42788556"
         inkscape:transform-center-y="-0.31712508" />
      <path
         sodipodi:nodetypes="ccccc"
         inkscape:connector-curvature="0"
         id="path5379"
         d="m 31.203743,1043.47 5.380231,-2.2952 -0.191394,0.4012 -4.81873,2.0884 z"
         style="fill:#291c0c;fill-opacity:1;fill-rule:evenodd;stroke:none;stroke-width:1px;stroke-linecap:butt;stroke-linejoin:miter;stroke-opacity:1"
         inkscape:transform-center-x="0.82495505"
         inkscape:transform-center-y="-1.5968498" />
      <path
         sodipodi:nodetypes="ccccc"
         inkscape:connector-curvature="0"
         style="fill:url(#radialGradient5395);fill-opacity:1;fill-rule:evenodd;stroke:none;stroke-width:1px;stroke-linecap:butt;stroke-linejoin:miter;stroke-opacity:1"
         d="m 37.820958,1045.2098 c 0,0 -2.516103,1.8012 -4.692918,2.1837 l 0.543265,1.3294 c 3.021662,-0.4722 3.343192,-1.0281 4.66863,-2.1975 z"
         id="path5381" />
    </g>
    <circle
       style="fill:#343223;fill-opacity:1;stroke:none;stroke-width:1;stroke-linejoin:bevel;stroke-miterlimit:4;stroke-dasharray:none;stroke-dashoffset:0;stroke-opacity:1"
       id="path4935"
       cx="24.025335"
       cy="1024.9196"
       r="20.454954" />
    <ellipse
       cy="1024.8981"
       cx="23.920788"
       id="circle4937"
       style="fill:#efebea;fill-opacity:1;stroke:none;stroke-width:1;stroke-linejoin:bevel;stroke-miterlimit:4;stroke-dasharray:none;stroke-dashoffset:0;stroke-opacity:1"
       rx="19.950869"
       ry="19.995022" />
    <path
       style="fill:#37270f;fill-opacity:1;fill-rule:evenodd;stroke:none;stroke-width:1px;stroke-linecap:butt;stroke-linejoin:miter;stroke-opacity:1"
       d="m 5.4635121,1022.2486 c 0,0 0.019971,-2.8788 1.178244,-5.6889 1.1590212,-2.8119 3.5897129,-6.3069 6.0240309,-7.7986 2.062769,-1.264 6.724013,-3.1658 9.72831,-3.3162 11.190977,-0.5604 16.389823,6.8044 17.574607,8.3377 1.184784,1.5333 3.033721,6.1795 2.04447,10.1979 -0.691153,-3.8686 -1.348658,-6.414 -3.648534,-9.1321 -2.299875,-2.7179 -6.699647,-6.5817 -13.867489,-6.9394 -4.6033,-0.2297 -8.345573,0.9314 -13.264214,4.8862 -3.0741755,2.4718 -4.56319,7.443 -5.7694249,9.4534 z"
       id="path4939"
       inkscape:connector-curvature="0"
       sodipodi:nodetypes="cssssccssc" />
    <path
       style="fill:url(#radialGradient4971);fill-opacity:1;fill-rule:evenodd;stroke:none;stroke-width:1px;stroke-linecap:butt;stroke-linejoin:miter;stroke-opacity:1"
       d="m 44.726841,1007.3874 -4.74749,2.9379 -0.633028,-0.076 -0.735551,0.3031 c 1.680316,2.0366 2.570381,3.512 3.741804,5.5486 l 0.498065,-0.4826 0.06661,-0.461 4.7262,-2.938 c -0.487509,-2.3807 -1.464005,-3.9848 -2.916621,-4.8325 z"
       id="path4959"
       inkscape:connector-curvature="0"
       sodipodi:nodetypes="cccccccccc" />
    <path
       style="fill:#291c0c;fill-opacity:1;fill-rule:evenodd;stroke:none;stroke-width:1px;stroke-linecap:butt;stroke-linejoin:miter;stroke-opacity:1"
       d="m 39.346323,1010.2493 c 1.771063,1.7266 2.604973,3.202 3.504318,5.3691 l 0.06661,-0.461 c -0.559426,-1.9874 -1.894741,-3.8103 -2.937911,-4.8321 z"
       id="path4975"
       inkscape:connector-curvature="0"
       sodipodi:nodetypes="ccccc" />
    <path
       sodipodi:nodetypes="cccccccccc"
       inkscape:connector-curvature="0"
       id="path4977"
       d="m 44.583919,1042.7245 -4.860002,-3.0463 -0.453399,0.062 -0.728399,-0.3199 c 1.726626,-1.9977 2.650322,-3.4522 3.868187,-5.4613 l 0.486853,0.494 0.05602,0.4622 4.657513,3.0458 c -0.542029,2.3689 -1.555093,3.9502 -3.026789,4.7644 z"
       style="fill:url(#linearGradient4993);fill-opacity:1;fill-rule:evenodd;stroke:none;stroke-width:1px;stroke-linecap:butt;stroke-linejoin:miter;stroke-opacity:1"
       inkscape:transform-center-x="0.56250001"
       inkscape:transform-center-y="-0.1875" />
    <path
       sodipodi:nodetypes="ccccc"
       inkscape:connector-curvature="0"
       id="path4979"
       d="m 39.270518,1039.7398 3.626641,-5.2872 0.05602,0.4622 -3.229264,4.7634 z"
       style="fill:#291c0c;fill-opacity:1;fill-rule:evenodd;stroke:none;stroke-width:1px;stroke-linecap:butt;stroke-linejoin:miter;stroke-opacity:1"
       inkscape:transform-center-x="1.7004615"
       inkscape:transform-center-y="-0.90945002" />
    <path
       style="fill:url(#linearGradient5016);fill-opacity:1;fill-rule:evenodd;stroke:none;stroke-width:1px;stroke-linecap:butt;stroke-linejoin:miter;stroke-opacity:1"
       d="m 45.450361,1036.5471 c 0,0 1.427561,0.972 -0.866563,6.1773 0.735846,-0.4072 1.356274,-1.004 1.861256,-1.7972 0.204082,-0.3207 0.376848,-0.6948 0.542867,-1.0791 0.05666,-0.1348 0.114048,-0.2478 0.168601,-0.3945 0.173268,-0.4598 0.331135,-0.9514 0.455197,-1.4937 l -2.16135,-1.4128 z"
       id="path5005"
       inkscape:connector-curvature="0" />
    <circle
       style="fill:#817461;fill-opacity:1;stroke:none;stroke-width:0;stroke-linejoin:bevel;stroke-miterlimit:4;stroke-dasharray:none;stroke-dashoffset:0;stroke-opacity:1"
       id="path5100"
       cx="24.025335"
       cy="1026.6908"
       r="17.793587" />
    <path
       sodipodi:nodetypes="cccccccccc"
       inkscape:connector-curvature="0"
       id="path5018"
       d="m 3.3356591,1007.4188 4.7474892,2.938 0.6330267,-0.076 0.7355512,0.3033 c -1.680316,2.0364 -2.5703805,3.5118 -3.741802,5.5484 l -0.4980666,-0.4826 -0.066621,-0.4609 -4.72619953,-2.9381 c 0.4875082,-2.3807 1.46400563,-3.9848 2.91662223,-4.8325 z"
       style="fill:#968a7b;fill-opacity:1;fill-rule:evenodd;stroke:none;stroke-width:1px;stroke-linecap:butt;stroke-linejoin:miter;stroke-opacity:1" />
    <path
       style="fill:url(#linearGradient5056);fill-opacity:1;fill-rule:evenodd;stroke:none;stroke-width:1px;stroke-linecap:butt;stroke-linejoin:miter;stroke-opacity:1"
       d="m 2.6987465,1007.8636 4.8299647,3.0833 c -0.4998857,0.6675 -1.3053472,1.8018 -1.7731061,2.8686 l -4.9418509,-3.0295 c 0.270633,-0.9592 1.0596011,-2.2767 1.8849923,-2.9224 z"
       id="path5048"
       inkscape:connector-curvature="0"
       sodipodi:nodetypes="ccccc" />
    <path
       sodipodi:nodetypes="ccccc"
       inkscape:connector-curvature="0"
       id="path5020"
       d="m 8.716175,1010.2807 c -1.7710617,1.7266 -2.6049721,3.202 -3.5043174,5.3691 l -0.066621,-0.4609 c 0.5594259,-1.9875 1.8947417,-3.8104 2.9379119,-4.8321 z"
       style="fill:#291c0c;fill-opacity:1;fill-rule:evenodd;stroke:none;stroke-width:1px;stroke-linecap:butt;stroke-linejoin:miter;stroke-opacity:1" />
    <path
       style="fill:url(#radialGradient5073);fill-opacity:1;fill-rule:evenodd;stroke:none;stroke-width:1px;stroke-linecap:butt;stroke-linejoin:miter;stroke-opacity:1"
       d="m 3.336827,1007.4186 c -1.4526167,0.8478 -2.42913509,2.4512 -2.91664311,4.8319 1.27576551,-0.2929 1.75966141,-1.2098 2.26924931,-2.1682 0.5095881,-0.9583 0.6665202,-1.8475 0.6473938,-2.6637 z"
       id="path5062"
       inkscape:connector-curvature="0"
       sodipodi:nodetypes="cczc" />
    <path
       style="fill:url(#linearGradient5077);fill-opacity:1;fill-rule:evenodd;stroke:none;stroke-width:1px;stroke-linecap:butt;stroke-linejoin:miter;stroke-opacity:1"
       d="m 3.460385,1042.7007 4.7474891,-2.938 0.6330267,0.076 0.7355514,-0.303 c -1.6803162,-2.0367 -2.5703805,-3.512 -3.7418021,-5.5487 l -0.4980666,0.4828 -0.066621,0.4609 -4.72619958,2.938 c 0.48750818,2.3806 1.46400548,3.9849 2.91662228,4.8326 z"
       id="path5024"
       inkscape:connector-curvature="0"
       sodipodi:nodetypes="cccccccccc" />
    <path
       style="fill:#291c0c;fill-opacity:1;fill-rule:evenodd;stroke:none;stroke-width:1px;stroke-linecap:butt;stroke-linejoin:miter;stroke-opacity:1"
       d="m 8.8409008,1039.8386 c -1.7710616,-1.7265 -2.6049719,-3.2018 -3.5043173,-5.3689 l -0.066621,0.4608 c 0.5594258,1.9874 1.8947416,3.8103 2.9379117,4.8322 z"
       id="path5026"
       inkscape:connector-curvature="0"
       sodipodi:nodetypes="ccccc" />
    <path
       style="fill:#2e2b27;fill-opacity:1;stroke:none;stroke-width:0;stroke-linejoin:bevel;stroke-miterlimit:4;stroke-dasharray:none;stroke-dashoffset:0;stroke-opacity:1"
       d="m 0.58594223,1037.8408 -0.0438342,0.028 c 0.48750824,2.3806 1.46402674,3.9839 2.91664334,4.8318 l 0.077553,-0.047 a 3.5741523,1.9421809 62.319949 0 0 -0.670996,-2.5324 3.5741523,1.9421809 62.319949 0 0 -2.27936525,-2.2794 z"
       id="path5093"
       inkscape:connector-curvature="0" />
    <path
       style="fill:#4e4d4b;fill-opacity:1;stroke:none;stroke-width:0;stroke-linejoin:bevel;stroke-miterlimit:4;stroke-dasharray:none;stroke-dashoffset:0;stroke-opacity:1"
       d="m 14.227869,1011.8482 a 17.793586,17.793586 0 0 0 -6.2304918,7.1652 l 0,15.3684 a 17.793586,17.793586 0 0 0 2.5288818,3.8694 l 27.015711,0 a 17.793586,17.793586 0 0 0 2.51132,-3.8831 l 0,-15.3684 a 17.793586,17.793586 0 0 0 -6.236347,-7.1515 l -19.589074,0 z"
       id="rect5098"
       inkscape:connector-curvature="0" />
    <path
       style="fill:#968369;fill-opacity:0.80882353;fill-rule:evenodd;stroke:none;stroke-width:1px;stroke-linecap:butt;stroke-linejoin:miter;stroke-opacity:1"
       d="m 9.6013431,1018.2504 -2.8410884,-0.3434 -0.5619737,12.1449 2.9659719,0.281 z"
       id="path5299"
       inkscape:connector-curvature="0" />
    <path
       style="fill:#a4988c;fill-opacity:0.73529412;fill-rule:evenodd;stroke:none;stroke-width:1px;stroke-linecap:butt;stroke-linejoin:miter;stroke-opacity:1"
       d="m 6.0421772,1019.3744 3.5279452,0.2497 -0.3122072,9.1789 -3.465504,-0.156 z"
       id="path5301"
       inkscape:connector-curvature="0" />
    <ellipse
       style="fill:#dbc4a2;fill-opacity:1;stroke:none;stroke-width:0;stroke-linejoin:bevel;stroke-miterlimit:4;stroke-dasharray:none;stroke-dashoffset:0;stroke-opacity:1"
       id="path5297"
       cx="7.2119455"
       cy="1024.2434"
       rx="1.3245846"
       ry="2.5608635" />
    <path
       style="fill:#f4e8d1;fill-opacity:1;fill-rule:evenodd;stroke:none;stroke-width:1px;stroke-linecap:butt;stroke-linejoin:miter;stroke-opacity:1"
       d="m 39.3438,1017.7939 0.110382,12.1861 2.892009,-0.3531 -0.132458,-11.7668 z"
       id="path5303"
       inkscape:connector-curvature="0" />
    <path
       style="fill:#000000;fill-opacity:0;fill-rule:evenodd;stroke:none;stroke-width:1px;stroke-linecap:butt;stroke-linejoin:miter;stroke-opacity:1"
       d="m 39.3438,1019.4496 3.421843,-0.3753 0.08831,9.2942 -3.421843,0.3311 z"
       id="path5321"
       inkscape:connector-curvature="0" />
    <path
       style="fill:#b8aea4;fill-opacity:0.80582521;fill-rule:evenodd;stroke:none;stroke-width:1px;stroke-linecap:butt;stroke-linejoin:miter;stroke-opacity:1"
       d="m 39.369923,1019.4249 3.421843,-0.3753 0.08831,9.2942 -3.421843,0.3311 z"
       id="path5321-1"
       inkscape:connector-curvature="0" />
    <ellipse
       style="fill:#e1d5bf;fill-opacity:1;stroke:none;stroke-width:0;stroke-linejoin:bevel;stroke-miterlimit:4;stroke-dasharray:none;stroke-dashoffset:0;stroke-opacity:1"
       id="path5323"
       cx="41.176144"
       cy="1023.8648"
       rx="1.192126"
       ry="2.4063284" />
    <path
       style="fill:#efebea;fill-opacity:1;fill-rule:evenodd;stroke:none;stroke-width:1px;stroke-linecap:butt;stroke-linejoin:miter;stroke-opacity:1"
       d="m 20.013245,1047.6256 -2.358481,-2.1596 -1.577669,-1.4326 c 0,0 -0.640485,-0.8206 -0.140953,-2.007 0.499532,-1.1863 0.665442,-2.1503 3.434283,-4.2772 0.811426,-0.6234 2.443092,-1.1507 4.152476,-1.2146 1.983321,-0.074 4.038842,0.3891 4.526895,0.6839 1.468709,0.8867 4.333721,2.8602 4.10442,6.2207 -0.03768,0.5523 -0.918609,1.1749 -1.640291,1.9924 -0.836593,0.9476 -1.924882,2.1247 -1.924882,2.1247 z"
       id="path5490"
       inkscape:connector-curvature="0"
       sodipodi:nodetypes="cccsssssscc" />
    <path
       sodipodi:nodetypes="cssssssssscc"
       inkscape:connector-curvature="0"
       id="path5492"
       d="m 20.013245,1047.6256 c 0,0 -0.511794,-0.442 -1.122082,-1.1084 -0.374719,-0.4092 -2.192459,-2.2011 -2.414621,-2.7095 -0.334828,-0.7663 -0.34431,-1.2174 0.149849,-2.3446 0.512666,-1.1695 1.880071,-2.8636 3.053414,-3.3986 0.947281,-0.4319 2.31349,-1.1022 3.932194,-1.1634 1.878112,-0.071 3.824541,0.3728 4.286753,0.655 1.240338,0.7574 2.816026,2.0997 3.701209,4.2591 0.333129,0.8127 0.311816,1.3532 0.02509,1.9331 -0.163653,0.331 -1.470272,1.7587 -2.04269,2.4666 -0.856948,1.0598 -1.194048,1.4019 -1.194048,1.4019 z"
       style="fill:#7b776d;fill-opacity:1;fill-rule:evenodd;stroke:none;stroke-width:1px;stroke-linecap:butt;stroke-linejoin:miter;stroke-opacity:1" />
    <path
       style="fill:#404040;fill-opacity:0.35784314;fill-rule:evenodd;stroke:none;stroke-width:1px;stroke-linecap:butt;stroke-linejoin:miter;stroke-opacity:1"
       d="m 24.292661,1034.1906 c -0.279366,-0.01 -0.562523,-0.01 -0.842961,0 -1.933625,0.077 -3.778901,0.7164 -4.696772,1.4712 -3.132064,2.5756 -3.319971,3.7421 -3.885034,5.1788 -0.565062,1.4367 0.160008,2.4313 0.160008,2.4313 l 0.87223,0.4 c -0.142948,-0.3454 -0.275604,-0.9109 0.03513,-1.6488 0.499532,-1.1864 0.665443,-2.1504 3.434284,-4.2773 0.811425,-0.6233 2.444928,-1.1517 4.154311,-1.2156 1.983322,-0.074 4.037006,0.3902 4.525058,0.6849 1.468709,0.8867 4.334831,2.8602 4.10553,6.2207 -0.0048,0.07 -0.02463,0.1419 -0.05464,0.2147 0.57851,-0.3871 1.089433,-0.7102 1.114191,-1.0986 0.259382,-4.0696 -2.980759,-6.4581 -4.642137,-7.532 -0.483068,-0.3123 -2.323627,-0.7812 -4.279195,-0.8332 z"
       id="path5684"
       inkscape:connector-curvature="0" />
    <path
       style="fill:#ffffff;fill-opacity:0.42156863;fill-rule:evenodd;stroke:none;stroke-width:1px;stroke-linecap:butt;stroke-linejoin:miter;stroke-opacity:1"
       d="m 13.735166,1008.1023 c 0.514017,1.7454 1.163304,3.5152 2.119335,5.2542 1.847369,-0.691 4.452719,-1.3653 7.235873,-1.5398 2.915768,-0.1828 5.996532,0.1572 7.24625,0.436 0.09036,-1.2286 0.772548,-2.9821 0.176612,-5.7399 -2.362204,-0.954 -5.386496,-1.477 -8.520317,-1.1797 -2.958018,0.2807 -6.028066,1.3114 -8.257753,2.7692 z"
       id="path5691"
       inkscape:connector-curvature="0"
       sodipodi:nodetypes="ccsccsc" />
    <g
       id="g5223"
       transform="matrix(0.09370229,0,0,0.09370229,0.01221241,953.74126)">
      <path
         id="rect4900"
         d="m 137.02742,676.64185 29.67875,0 0,29.67875 -29.67875,0 z"
         style="fill:none;fill-opacity:0.19607843;stroke:#bfbfbf;stroke-width:8;stroke-linejoin:miter;stroke-miterlimit:4;stroke-dasharray:none;stroke-dashoffset:0;stroke-opacity:1"
         inkscape:connector-curvature="0" />
      <path
         sodipodi:nodetypes="cc"
         inkscape:connector-curvature="0"
         id="path4903"
         d="m 166.70617,706.3206 0,109.24305 176.80959,0 0,-109.24305 -176.80959,0"
         style="fill:none;fill-rule:evenodd;stroke:#bfbfbf;stroke-width:8;stroke-linecap:butt;stroke-linejoin:miter;stroke-miterlimit:4;stroke-dasharray:none;stroke-opacity:1" />
      <path
         inkscape:connector-curvature="0"
         style="fill:none;fill-opacity:0.19607843;stroke:#bfbfbf;stroke-width:8;stroke-linejoin:miter;stroke-miterlimit:4;stroke-dasharray:none;stroke-dashoffset:0;stroke-opacity:1"
         d="m 137.02742,815.56365 29.67875,0 0,29.67875 -29.67875,0 z"
         id="path4905" />
      <path
         id="path4907"
         d="m 343.51576,815.56365 29.67875,0 0,29.67875 -29.67875,0 z"
         style="fill:none;fill-opacity:0.19607843;stroke:#bfbfbf;stroke-width:8;stroke-linejoin:miter;stroke-miterlimit:4;stroke-dasharray:none;stroke-dashoffset:0;stroke-opacity:1"
         inkscape:connector-curvature="0" />
      <path
         inkscape:connector-curvature="0"
         style="fill:none;fill-opacity:0.19607843;stroke:#bfbfbf;stroke-width:8;stroke-linejoin:miter;stroke-miterlimit:4;stroke-dasharray:none;stroke-dashoffset:0;stroke-opacity:1"
         d="m 343.51576,676.64185 29.67875,0 0,29.67875 -29.67875,0 z"
         id="path4909" />
    </g>
    <text
       xml:space="preserve"
       style="font-style:normal;font-weight:normal;line-height:0%;font-family:sans-serif;text-align:center;letter-spacing:0px;word-spacing:0px;text-anchor:middle;fill:#bfbfbf;fill-opacity:1;stroke:none;stroke-width:1px;stroke-linecap:butt;stroke-linejoin:miter;stroke-opacity:1"
       x="23.917078"
       y="1027.252"
       id="text4911"><tspan
         sodipodi:role="line"
         id="tspan4913"
         x="23.917078"
         y="1027.252"
         style="font-style:normal;font-variant:normal;font-weight:normal;font-stretch:normal;font-size:6.3344841px;line-height:1.25;font-family:Limelight;-inkscape-font-specification:Limelight;fill:#bfbfbf;fill-opacity:1">END</tspan></text>
    <path
       style="fill:#000000;fill-opacity:1;stroke:none;stroke-width:0;stroke-linejoin:bevel;stroke-miterlimit:4;stroke-dasharray:none;stroke-dashoffset:0;stroke-opacity:1"
       d="M 11.222656 10 A 17.793587 17.793587 0 0 0 10 11.412109 L 10 30.091797 L 37.005859 30.091797 L 37.005859 10.177734 A 17.793587 17.793587 0 0 0 36.849609 10 L 11.222656 10 z "
       transform="translate(0,1004.3622)"
       id="rect5230" />
    <path
       inkscape:connector-curvature="0"
       id="path5234"
       d="m 12.498441,1016.8569 3.024035,0 0,3.024 -3.024035,0 z"
       style="fill:none;fill-opacity:0.19607843;stroke:#bfbfbf;stroke-width:1;stroke-linejoin:miter;stroke-miterlimit:4;stroke-dasharray:none;stroke-dashoffset:0;stroke-opacity:1"
       sodipodi:nodetypes="ccccc" />
    <path
       sodipodi:nodetypes="ccccc"
       inkscape:connector-curvature="0"
       id="path5236"
       d="m 15.478282,1019.9251 0,8.8982 16.018178,0 0,-8.8982 -15.863498,0"
       style="fill:none;fill-rule:evenodd;stroke:#bfbfbf;stroke-width:1;stroke-linecap:butt;stroke-linejoin:miter;stroke-miterlimit:4;stroke-dasharray:none;stroke-opacity:1" />
    <path
       inkscape:connector-curvature="0"
       style="fill:none;fill-opacity:0.19607843;stroke:#bfbfbf;stroke-width:1;stroke-linejoin:miter;stroke-miterlimit:4;stroke-dasharray:none;stroke-dashoffset:0;stroke-opacity:1"
       d="m 12.508245,1028.8545 2.999717,0 0,3.031 -2.999717,0 z"
       id="path5238"
       sodipodi:nodetypes="ccccc" />
    <path
       id="path5240"
       d="m 31.49646,1028.8701 2.999717,0 0,2.9998 -2.999717,0 z"
       style="fill:none;fill-opacity:0.19607843;stroke:#bfbfbf;stroke-width:1;stroke-linejoin:miter;stroke-miterlimit:4;stroke-dasharray:none;stroke-dashoffset:0;stroke-opacity:1"
       inkscape:connector-curvature="0"
       sodipodi:nodetypes="ccccc" />
    <path
       inkscape:connector-curvature="0"
       style="fill:none;fill-opacity:0.19607843;stroke:#bfbfbf;stroke-width:1;stroke-linejoin:miter;stroke-miterlimit:4;stroke-dasharray:none;stroke-dashoffset:0;stroke-opacity:1"
       d="m 31.49646,1016.8786 2.999717,0 0,2.984 -2.999717,0 z"
       id="path5242"
       sodipodi:nodetypes="ccccc" />
    <path
       inkscape:connector-curvature="0"
       id="path5700"
       style="font-style:normal;font-variant:normal;font-weight:normal;font-stretch:normal;font-size:medium;line-height:125%;font-family:Limelight;-inkscape-font-specification:Limelight;text-align:center;letter-spacing:0px;word-spacing:0px;text-anchor:middle;fill:#bfbfbf;fill-opacity:1;stroke:none;stroke-width:1px;stroke-linecap:butt;stroke-linejoin:miter;stroke-opacity:1"
       d="m 20.010629,1021.3663 c 0,0 -0.01592,0.9651 -0.01592,1.0113 0,0 -1.626992,0.01 -1.993606,0.01 l 0,1.0262 1.986588,0.018 0.0035,0.9234 -1.990068,0 0,2.0116 2.008951,0 -0.01387,0.9958 -2.989783,-0.01 0.0066,-6.008 c 1.009898,0.022 1.986477,0.031 2.997619,0.013 z"
       sodipodi:nodetypes="ccccccccccccc" />
    <path
       inkscape:connector-curvature="0"
       id="path5702"
       style="font-style:normal;font-variant:normal;font-weight:normal;font-stretch:normal;font-size:medium;line-height:125%;font-family:Limelight;-inkscape-font-specification:Limelight;text-align:center;letter-spacing:0px;word-spacing:0px;text-anchor:middle;fill:#bfbfbf;fill-opacity:1;stroke:none;stroke-width:1px;stroke-linecap:butt;stroke-linejoin:miter;stroke-opacity:1"
       d="m 21.024347,1027.3886 -0.0051,-6.0292 0.957655,0.01 2.023748,3.9828 0.0026,-3.9733 1.010107,-0.01 -0.0052,5.9917 -0.995301,0.021 -2.014441,-4.0192 c -0.01456,0.6145 0.0027,3.3991 0.0105,4.0001 l -0.992352,-0 z"
       sodipodi:nodetypes="cccccccccccc" />
    <path
       style="font-style:normal;font-variant:normal;font-weight:normal;font-stretch:normal;font-size:medium;line-height:125%;font-family:Limelight;-inkscape-font-specification:Limelight;text-align:center;letter-spacing:0px;word-spacing:0px;text-anchor:middle;fill:#bfbfbf;fill-opacity:1;stroke:none;stroke-width:1px;stroke-linecap:butt;stroke-linejoin:miter;stroke-opacity:1"
       d="m 26,1021.2835 1.267327,0 q 0.319878,0 0.554456,0.021 0.237623,0.018 0.417365,0.055 0.182787,0.038 0.325971,0.1025 0.14623,0.06 0.28332,0.142 0.277229,0.1675 0.490481,0.4383 0.216298,0.2665 0.362529,0.6105 0.146229,0.3438 0.222391,0.7478 0.07616,0.404 0.07616,0.8423 0,0.4727 -0.0853,0.8852 -0.08226,0.4127 -0.24067,0.7607 -0.158416,0.3481 -0.386901,0.6275 -0.225437,0.2751 -0.511805,0.4727 -0.155369,0.1027 -0.316832,0.1762 -0.161462,0.073 -0.362529,0.1162 -0.201066,0.043 -0.460015,0.064 -0.258949,0.017 -0.606245,0.017 l -1.029703,0 0,-6.0815 z"
       id="path5713"
       inkscape:connector-curvature="0" />
    <path
       style="font-style:normal;font-variant:normal;font-weight:normal;font-stretch:normal;font-size:medium;line-height:125%;font-family:Limelight;-inkscape-font-specification:Limelight;text-align:center;letter-spacing:0px;word-spacing:0px;text-anchor:middle;fill:#000000;fill-opacity:1;stroke:none;stroke-width:1px;stroke-linecap:butt;stroke-linejoin:miter;stroke-opacity:1"
       d="m 27,1026.3622 q 0.04456,0 0.08078,0 0.039,0 0.06408,0 0.242337,0 0.473534,-0.06 0.231197,-0.065 0.437324,-0.1815 0.206126,-0.1203 0.378826,-0.2958 0.175487,-0.175 0.300836,-0.4009 0.125348,-0.2291 0.194983,-0.506 Q 29,1024.6412 29,1024.3198 q 0,-0.2895 -0.06407,-0.56 -0.06128,-0.2738 -0.183842,-0.506 -0.119783,-0.2322 -0.298049,-0.4105 -0.175487,-0.1811 -0.403898,-0.2895 -0.183842,-0.088 -0.437323,-0.1373 -0.250694,-0.048 -0.612809,-0.054 l 0,3.9965 z"
       id="path5704"
       inkscape:connector-curvature="0" />
    <g
       id="g5750"
       transform="matrix(1.728,0,0,1.728,-17.711794,-765.83078)">
      <ellipse
         style="fill:#59564a;fill-opacity:1;stroke:none;stroke-width:0.30000001;stroke-linejoin:bevel;stroke-miterlimit:4;stroke-dasharray:none;stroke-dashoffset:0;stroke-opacity:1"
         id="ellipse5674"
         cx="24.223991"
         cy="1046.1348"
         rx="5.3035622"
         ry="5.2812119" />
      <ellipse
         ry="5.0651579"
         rx="5.2488861"
         style="fill:#ebe7dc;fill-opacity:1;stroke:none;stroke-width:0.30000001;stroke-linejoin:bevel;stroke-miterlimit:4;stroke-dasharray:none;stroke-dashoffset:0;stroke-opacity:1"
         id="ellipse5676"
         cx="24.223991"
         cy="1046.1932" />
      <ellipse
         ry="5.0564494"
         rx="5.362196"
         cy="1046.7114"
         cx="24.243536"
         id="path5540"
         style="fill:#59564a;fill-opacity:1;stroke:none;stroke-width:0.30000001;stroke-linejoin:bevel;stroke-miterlimit:4;stroke-dasharray:none;stroke-dashoffset:0;stroke-opacity:1" />
      <ellipse
         cy="1046.8774"
         cx="24.243536"
         id="ellipse5672"
         style="fill:#ebe7dc;fill-opacity:1;stroke:none;stroke-width:0.30000001;stroke-linejoin:bevel;stroke-miterlimit:4;stroke-dasharray:none;stroke-dashoffset:0;stroke-opacity:1"
         rx="5.3069158"
         ry="4.8501687" />
      <ellipse
         ry="4.518486"
         rx="5.3069158"
         style="fill:#b7afa0;fill-opacity:1;stroke:none;stroke-width:0.30000001;stroke-linejoin:bevel;stroke-miterlimit:4;stroke-dasharray:none;stroke-dashoffset:0;stroke-opacity:1"
         id="circle5542"
         cx="24.243536"
         cy="1047.2089" />
      <ellipse
         ry="3.8595405"
         rx="4.53299"
         cy="1047.2089"
         cx="24.243536"
         id="circle5544"
         style="fill:#282723;fill-opacity:1;stroke:none;stroke-width:0.30000001;stroke-linejoin:bevel;stroke-miterlimit:4;stroke-dasharray:none;stroke-dashoffset:0;stroke-opacity:1" />
      <path
         sodipodi:nodetypes="cccccccccc"
         inkscape:connector-curvature="0"
         id="path5552"
         d="m 20.337496,1046.78 c -0.263841,0.016 -0.468577,0.2023 -0.46907,0.4275 1.87e-4,0.019 0.0018,0.038 0.0048,0.056 l 0,1.1996 0.996772,0 0,-1.185 c 0.0048,-0.024 0.0073,-0.047 0.0074,-0.071 -0.0012,-0.2361 -0.226001,-0.427 -0.503273,-0.4275 -0.01222,-4e-4 -0.02444,-4e-4 -0.03665,0 z"
         style="fill:#605d56;fill-opacity:1;stroke:none;stroke-width:0.30000001;stroke-linejoin:bevel;stroke-miterlimit:4;stroke-dasharray:none;stroke-dashoffset:0;stroke-opacity:1" />
      <path
         sodipodi:nodetypes="cccccccccc"
         inkscape:connector-curvature="0"
         id="circle5554"
         d="m 21.507727,1049.1083 c -0.266466,0 -0.486911,0.1765 -0.503273,0.4029 -0.0011,0.01 -0.002,0.018 -0.0025,0.028 3.75e-4,0.01 0.0012,0.02 0.0025,0.03 l 0,1.1432 0.996772,0 0,-1.0871 c 0.0065,-0.028 0.0098,-0.057 0.0098,-0.085 3.74e-4,-0.2371 -0.224913,-0.4295 -0.503273,-0.43 z"
         style="fill:#605d56;fill-opacity:1;stroke:none;stroke-width:0.30000001;stroke-linejoin:bevel;stroke-miterlimit:4;stroke-dasharray:none;stroke-dashoffset:0;stroke-opacity:1" />
      <path
         sodipodi:nodetypes="ccccccccc"
         inkscape:connector-curvature="0"
         id="circle5556"
         d="m 24.243966,1050.0733 c -0.279315,-9e-4 -0.50606,0.1921 -0.505717,0.4299 2.81e-4,0.027 0.0036,0.054 0.0098,0.08 l 0,1.1604 0.996772,0 0,-1.197 c 0.0016,-0.013 0.0025,-0.028 0.0025,-0.041 3.75e-4,-0.237 -0.224913,-0.4295 -0.503272,-0.43 z"
         style="fill:#605d56;fill-opacity:1;stroke:none;stroke-width:0.30000001;stroke-linejoin:bevel;stroke-miterlimit:4;stroke-dasharray:none;stroke-dashoffset:0;stroke-opacity:1" />
      <path
         sodipodi:nodetypes="cccccccccc"
         inkscape:connector-curvature="0"
         id="circle5558"
         d="m 26.980205,1049.1083 c -0.279316,-9e-4 -0.50606,0.1921 -0.505717,0.4299 4.68e-4,0.01 0.0012,0.02 0.0025,0.03 l -0.0048,0 0,1.1995 0.999216,0 0,-1.1361 c 0.0081,-0.03 0.01213,-0.062 0.01226,-0.093 3.75e-4,-0.2369 -0.224914,-0.4294 -0.503274,-0.4299 z"
         style="fill:#605d56;fill-opacity:1;stroke:none;stroke-width:0.30000001;stroke-linejoin:bevel;stroke-miterlimit:4;stroke-dasharray:none;stroke-dashoffset:0;stroke-opacity:1" />
      <path
         sodipodi:nodetypes="cccccccccc"
         inkscape:connector-curvature="0"
         id="circle5560"
         d="m 28.077143,1046.78 c -0.263841,0.016 -0.468578,0.2023 -0.46907,0.4275 3.75e-4,0.03 0.0045,0.061 0.01226,0.09 l 0,1.0873 0.996772,0 0,-1.1777 c 1.87e-4,-0.01 1.87e-4,-0.014 0,-0.021 -0.0148,-0.2276 -0.235684,-0.4056 -0.503272,-0.4057 -0.01222,-4e-4 -0.02444,-4e-4 -0.03665,0 z"
         style="fill:#605d56;fill-opacity:1;stroke:none;stroke-width:0.30000001;stroke-linejoin:bevel;stroke-miterlimit:4;stroke-dasharray:none;stroke-dashoffset:0;stroke-opacity:1" />
      <path
         sodipodi:nodetypes="ccccccccccc"
         inkscape:connector-curvature="0"
         id="circle5562"
         d="m 26.980205,1044.4494 c -0.279315,-7e-4 -0.50606,0.1921 -0.505717,0.4299 4.68e-4,0.023 0.0028,0.044 0.0074,0.066 l 0,0.012 0,1.1922 0.996774,0 0,-1.1995 -0.0025,0 c 0.0046,-0.021 0.0069,-0.044 0.0074,-0.066 3.75e-4,-0.2371 -0.224913,-0.4295 -0.503272,-0.43 z"
         style="fill:#605d56;fill-opacity:1;stroke:none;stroke-width:0.30000001;stroke-linejoin:bevel;stroke-miterlimit:4;stroke-dasharray:none;stroke-dashoffset:0;stroke-opacity:1" />
      <path
         sodipodi:nodetypes="cccccccccc"
         inkscape:connector-curvature="0"
         id="circle5564"
         d="m 24.243966,1043.4844 c -0.279315,-7e-4 -0.50606,0.192 -0.505717,0.4298 1.87e-4,0.028 0.0035,0.055 0.0098,0.082 l 0,1.1947 0.996772,0 0,-1.2021 -0.0048,0 c 0.005,-0.024 0.0074,-0.048 0.0074,-0.074 3.75e-4,-0.2371 -0.224912,-0.4295 -0.503273,-0.4299 z"
         style="fill:#605d56;fill-opacity:1;stroke:none;stroke-width:0.30000001;stroke-linejoin:bevel;stroke-miterlimit:4;stroke-dasharray:none;stroke-dashoffset:0;stroke-opacity:1" />
      <path
         sodipodi:nodetypes="ccccccccccc"
         inkscape:connector-curvature="0"
         id="circle5566"
         d="m 21.715387,1044.3639 c -0.264969,0.016 -0.47012,0.2038 -0.469069,0.43 2.81e-4,0.017 0.0019,0.036 0.0048,0.054 l -0.0025,0 0,1.1996 0.999215,0 0,-1.1824 c 0.0047,-0.024 0.0073,-0.047 0.0074,-0.071 4.68e-4,-0.238 -0.226345,-0.4307 -0.505716,-0.4301 -0.01138,-3e-4 -0.0228,-3e-4 -0.0342,0 z"
         style="fill:#605d56;fill-opacity:1;stroke:none;stroke-width:0.30000001;stroke-linejoin:bevel;stroke-miterlimit:4;stroke-dasharray:none;stroke-dashoffset:0;stroke-opacity:1" />
      <ellipse
         ry="1.3531932"
         rx="1.5893112"
         cy="1047.2089"
         cx="24.243536"
         id="path5568"
         style="fill:#46413d;fill-opacity:1;stroke:none;stroke-width:0.30000001;stroke-linejoin:bevel;stroke-miterlimit:4;stroke-dasharray:none;stroke-dashoffset:0;stroke-opacity:1" />
      <ellipse
         style="fill:#d5d0c4;fill-opacity:1;stroke:none;stroke-width:0.30000001;stroke-linejoin:bevel;stroke-miterlimit:4;stroke-dasharray:none;stroke-dashoffset:0;stroke-opacity:1"
         id="ellipse5596"
         cx="20.373909"
         cy="1048.5355"
         rx="0.50431556"
         ry="0.42939118" />
      <ellipse
         cy="1050.8651"
         cx="21.507298"
         id="ellipse5598"
         style="fill:#d5d0c4;fill-opacity:1;stroke:none;stroke-width:0.30000001;stroke-linejoin:bevel;stroke-miterlimit:4;stroke-dasharray:none;stroke-dashoffset:0;stroke-opacity:1"
         rx="0.50431556"
         ry="0.42939118" />
      <ellipse
         style="fill:#d5d0c4;fill-opacity:1;stroke:none;stroke-width:0.30000001;stroke-linejoin:bevel;stroke-miterlimit:4;stroke-dasharray:none;stroke-dashoffset:0;stroke-opacity:1"
         id="ellipse5600"
         cx="24.243536"
         cy="1051.8304"
         rx="0.50431556"
         ry="0.42939118" />
      <ellipse
         cy="1050.8651"
         cx="26.979773"
         id="ellipse5602"
         style="fill:#d5d0c4;fill-opacity:1;stroke:none;stroke-width:0.30000001;stroke-linejoin:bevel;stroke-miterlimit:4;stroke-dasharray:none;stroke-dashoffset:0;stroke-opacity:1"
         rx="0.50431556"
         ry="0.42939118" />
      <ellipse
         style="fill:#d5d0c4;fill-opacity:1;stroke:none;stroke-width:0.30000001;stroke-linejoin:bevel;stroke-miterlimit:4;stroke-dasharray:none;stroke-dashoffset:0;stroke-opacity:1"
         id="ellipse5604"
         cx="28.113163"
         cy="1048.5355"
         rx="0.50431556"
         ry="0.42939118" />
      <ellipse
         cy="1046.2058"
         cx="26.979773"
         id="ellipse5606"
         style="fill:#d5d0c4;fill-opacity:1;stroke:none;stroke-width:0.30000001;stroke-linejoin:bevel;stroke-miterlimit:4;stroke-dasharray:none;stroke-dashoffset:0;stroke-opacity:1"
         rx="0.50431556"
         ry="0.42939118" />
      <ellipse
         style="fill:#d5d0c4;fill-opacity:1;stroke:none;stroke-width:0.30000001;stroke-linejoin:bevel;stroke-miterlimit:4;stroke-dasharray:none;stroke-dashoffset:0;stroke-opacity:1"
         id="ellipse5608"
         cx="24.243536"
         cy="1045.2407"
         rx="0.50431556"
         ry="0.42939118" />
      <ellipse
         cy="1046.12"
         cx="21.750076"
         id="ellipse5610"
         style="fill:#d5d0c4;fill-opacity:1;stroke:none;stroke-width:0.30000001;stroke-linejoin:bevel;stroke-miterlimit:4;stroke-dasharray:none;stroke-dashoffset:0;stroke-opacity:1"
         rx="0.50431556"
         ry="0.42939118" />
    </g>
  </g>
</svg>
